<mxfile host="app.diagrams.net" modified="2021-04-28T09:23:05.648Z" agent="5.0 (Windows NT 10.0; Win64; x64) AppleWebKit/537.36 (KHTML, like Gecko) Chrome/72.0.3626.119 Safari/537.36" etag="Drx8AQoaWTiSbEi9w66Z" version="14.6.6" type="github">
  <diagram id="5zHIfQ2nn9Vx1wzlOGG_" name="第 1 页">
    <mxGraphModel dx="1422" dy="762" grid="1" gridSize="10" guides="1" tooltips="1" connect="1" arrows="1" fold="1" page="1" pageScale="1" pageWidth="827" pageHeight="1169" math="0" shadow="0">
      <root>
        <mxCell id="0" />
        <mxCell id="1" parent="0" />
        <mxCell id="eKs8V6n2Qk9zKoK9kdoj-13" style="edgeStyle=orthogonalEdgeStyle;rounded=0;orthogonalLoop=1;jettySize=auto;html=1;dashed=1;" edge="1" parent="1" source="eKs8V6n2Qk9zKoK9kdoj-1" target="eKs8V6n2Qk9zKoK9kdoj-2">
          <mxGeometry relative="1" as="geometry" />
        </mxCell>
        <mxCell id="eKs8V6n2Qk9zKoK9kdoj-1" value="" style="ellipse;whiteSpace=wrap;html=1;aspect=fixed;fillColor=#d5e8d4;strokeColor=#82b366;" vertex="1" parent="1">
          <mxGeometry x="390" y="80" width="40" height="40" as="geometry" />
        </mxCell>
        <mxCell id="eKs8V6n2Qk9zKoK9kdoj-8" style="edgeStyle=orthogonalEdgeStyle;rounded=0;orthogonalLoop=1;jettySize=auto;html=1;entryX=0.5;entryY=0;entryDx=0;entryDy=0;dashed=1;" edge="1" parent="1" source="eKs8V6n2Qk9zKoK9kdoj-2" target="eKs8V6n2Qk9zKoK9kdoj-3">
          <mxGeometry relative="1" as="geometry" />
        </mxCell>
        <mxCell id="eKs8V6n2Qk9zKoK9kdoj-2" value="管理后台上传pdf扫描件" style="rounded=1;whiteSpace=wrap;html=1;" vertex="1" parent="1">
          <mxGeometry x="350" y="180" width="120" height="60" as="geometry" />
        </mxCell>
        <mxCell id="eKs8V6n2Qk9zKoK9kdoj-10" style="edgeStyle=orthogonalEdgeStyle;rounded=0;orthogonalLoop=1;jettySize=auto;html=1;dashed=1;" edge="1" parent="1" source="eKs8V6n2Qk9zKoK9kdoj-3" target="eKs8V6n2Qk9zKoK9kdoj-9">
          <mxGeometry relative="1" as="geometry" />
        </mxCell>
        <mxCell id="eKs8V6n2Qk9zKoK9kdoj-3" value="编辑签字区" style="rounded=1;whiteSpace=wrap;html=1;" vertex="1" parent="1">
          <mxGeometry x="350" y="300" width="120" height="60" as="geometry" />
        </mxCell>
        <mxCell id="eKs8V6n2Qk9zKoK9kdoj-7" style="edgeStyle=orthogonalEdgeStyle;rounded=0;orthogonalLoop=1;jettySize=auto;html=1;entryX=1;entryY=0.5;entryDx=0;entryDy=0;dashed=1;" edge="1" parent="1" source="eKs8V6n2Qk9zKoK9kdoj-6" target="eKs8V6n2Qk9zKoK9kdoj-3">
          <mxGeometry relative="1" as="geometry" />
        </mxCell>
        <mxCell id="eKs8V6n2Qk9zKoK9kdoj-6" value="集成天威页面" style="rounded=0;whiteSpace=wrap;html=1;" vertex="1" parent="1">
          <mxGeometry x="580" y="300" width="120" height="60" as="geometry" />
        </mxCell>
        <mxCell id="eKs8V6n2Qk9zKoK9kdoj-14" style="edgeStyle=orthogonalEdgeStyle;rounded=0;orthogonalLoop=1;jettySize=auto;html=1;dashed=1;" edge="1" parent="1" source="eKs8V6n2Qk9zKoK9kdoj-9" target="eKs8V6n2Qk9zKoK9kdoj-12">
          <mxGeometry relative="1" as="geometry" />
        </mxCell>
        <mxCell id="eKs8V6n2Qk9zKoK9kdoj-9" value="留存模板id信息（天威返回）" style="rounded=1;whiteSpace=wrap;html=1;" vertex="1" parent="1">
          <mxGeometry x="350" y="430" width="120" height="60" as="geometry" />
        </mxCell>
        <mxCell id="eKs8V6n2Qk9zKoK9kdoj-12" value="" style="ellipse;whiteSpace=wrap;html=1;aspect=fixed;fillColor=#f8cecc;strokeColor=#b85450;" vertex="1" parent="1">
          <mxGeometry x="390" y="565" width="40" height="40" as="geometry" />
        </mxCell>
      </root>
    </mxGraphModel>
  </diagram>
</mxfile>
